# xmcd
#
# Track frame offsets:
#	150
#	15243
#	29810
#	42447
#	58461
#	68698
#	87326
#	101387
#	114224
#	131971
#	148722
#	166831
#	180808
#	189250
#	205449
#	227952
#
# Disc length: 3353 seconds
#
# Revision: 1
# Processed by: cddbd v1.5.2PL0 Copyright (c) Steve Scherf et al.
# Submitted via: EasyCDDAExtractor 15.0.0.1
#
DISCID=db0d1710
DTITLE=Andrey kirlian - Ao Vivo na Atlanta Music Hall em Goiânia
DYEAR=1900
DGENRE=
TTITLE0=Minha namorada
TTITLE1=Pirraca
TTITLE2=De tanto te querer
TTITLE3=Vou doar meu coracao
TTITLE4=Na saideira
TTITLE5=Parece castigo
TTITLE6=Pode chorar
TTITLE7=Ficar por ficar
TTITLE8=Amor de violeiro
TTITLE9=Depois do temporal
TTITLE10=Do outro lado da cidade
TTITLE11=Telefone mudo
TTITLE12=Tem que ser voce
TTITLE13=Um gole de cerveja
TTITLE14=Eva
TTITLE15=De corpo alma e coracao
EXTD=
EXTT0=
EXTT1=
EXTT2=
EXTT3=
EXTT4=
EXTT5=
EXTT6=
EXTT7=
EXTT8=
EXTT9=
EXTT10=
EXTT11=
EXTT12=
EXTT13=
EXTT14=
EXTT15=
PLAYORDER=
